<mxfile host="app.diagrams.net" agent="Mozilla/5.0 (Windows NT 10.0; Win64; x64) AppleWebKit/537.36 (KHTML, like Gecko) Chrome/128.0.0.0 YaBrowser/24.10.0.0 Safari/537.36" version="25.0.3">
  <diagram id="fI12pEOKQrcM0B3SgJj2" name="Страница — 1">
    <mxGraphModel dx="1221" dy="746" grid="1" gridSize="10" guides="1" tooltips="1" connect="1" arrows="1" fold="1" page="1" pageScale="1" pageWidth="827" pageHeight="1169" math="0" shadow="0">
      <root>
        <mxCell id="0" />
        <mxCell id="1" parent="0" />
        <mxCell id="gO5JieloGNC4S19XsaBI-3" style="edgeStyle=orthogonalEdgeStyle;rounded=0;orthogonalLoop=1;jettySize=auto;html=1;exitX=0.5;exitY=0.5;exitDx=0;exitDy=15;exitPerimeter=0;entryX=0.5;entryY=0;entryDx=0;entryDy=0;" edge="1" parent="1" source="gO5JieloGNC4S19XsaBI-1" target="gO5JieloGNC4S19XsaBI-2">
          <mxGeometry relative="1" as="geometry" />
        </mxCell>
        <mxCell id="gO5JieloGNC4S19XsaBI-1" value="Начало" style="html=1;dashed=0;whiteSpace=wrap;shape=mxgraph.dfd.start" vertex="1" parent="1">
          <mxGeometry x="370" y="70" width="80" height="30" as="geometry" />
        </mxCell>
        <mxCell id="gO5JieloGNC4S19XsaBI-5" style="edgeStyle=orthogonalEdgeStyle;rounded=0;orthogonalLoop=1;jettySize=auto;html=1;exitX=0.5;exitY=1;exitDx=0;exitDy=0;entryX=0.5;entryY=0;entryDx=0;entryDy=0;" edge="1" parent="1" source="gO5JieloGNC4S19XsaBI-2" target="gO5JieloGNC4S19XsaBI-4">
          <mxGeometry relative="1" as="geometry" />
        </mxCell>
        <mxCell id="gO5JieloGNC4S19XsaBI-2" value="Отправка отчета руководителю для согласования с заказчиком проекта по внутренней корпоративной электронной почте" style="html=1;dashed=0;whiteSpace=wrap;" vertex="1" parent="1">
          <mxGeometry x="315" y="120" width="190" height="90" as="geometry" />
        </mxCell>
        <mxCell id="gO5JieloGNC4S19XsaBI-7" style="edgeStyle=orthogonalEdgeStyle;rounded=0;orthogonalLoop=1;jettySize=auto;html=1;exitX=0.5;exitY=1;exitDx=0;exitDy=0;entryX=0.5;entryY=0;entryDx=0;entryDy=0;" edge="1" parent="1" source="gO5JieloGNC4S19XsaBI-4" target="gO5JieloGNC4S19XsaBI-6">
          <mxGeometry relative="1" as="geometry" />
        </mxCell>
        <mxCell id="gO5JieloGNC4S19XsaBI-4" value="Проверка корректности отчета в соответствии с требованиями договора" style="html=1;dashed=0;whiteSpace=wrap;" vertex="1" parent="1">
          <mxGeometry x="330" y="230" width="160" height="60" as="geometry" />
        </mxCell>
        <mxCell id="gO5JieloGNC4S19XsaBI-9" style="edgeStyle=orthogonalEdgeStyle;rounded=0;orthogonalLoop=1;jettySize=auto;html=1;exitX=1;exitY=0.5;exitDx=0;exitDy=0;entryX=0;entryY=0.5;entryDx=0;entryDy=0;" edge="1" parent="1" source="gO5JieloGNC4S19XsaBI-6" target="gO5JieloGNC4S19XsaBI-8">
          <mxGeometry relative="1" as="geometry" />
        </mxCell>
        <mxCell id="gO5JieloGNC4S19XsaBI-10" value="нет" style="edgeLabel;html=1;align=center;verticalAlign=middle;resizable=0;points=[];" vertex="1" connectable="0" parent="gO5JieloGNC4S19XsaBI-9">
          <mxGeometry x="-0.4222" y="3" relative="1" as="geometry">
            <mxPoint x="3" y="-7" as="offset" />
          </mxGeometry>
        </mxCell>
        <mxCell id="gO5JieloGNC4S19XsaBI-13" style="edgeStyle=orthogonalEdgeStyle;rounded=0;orthogonalLoop=1;jettySize=auto;html=1;exitX=0;exitY=0.5;exitDx=0;exitDy=0;entryX=0.5;entryY=0;entryDx=0;entryDy=0;" edge="1" parent="1" source="gO5JieloGNC4S19XsaBI-6" target="gO5JieloGNC4S19XsaBI-12">
          <mxGeometry relative="1" as="geometry" />
        </mxCell>
        <mxCell id="gO5JieloGNC4S19XsaBI-14" value="да" style="edgeLabel;html=1;align=center;verticalAlign=middle;resizable=0;points=[];" vertex="1" connectable="0" parent="gO5JieloGNC4S19XsaBI-13">
          <mxGeometry x="-0.3879" y="2" relative="1" as="geometry">
            <mxPoint y="-12" as="offset" />
          </mxGeometry>
        </mxCell>
        <mxCell id="gO5JieloGNC4S19XsaBI-6" value="Все верно?" style="shape=rhombus;html=1;dashed=0;whiteSpace=wrap;perimeter=rhombusPerimeter;" vertex="1" parent="1">
          <mxGeometry x="355" y="310" width="110" height="60" as="geometry" />
        </mxCell>
        <mxCell id="gO5JieloGNC4S19XsaBI-8" value="Возврат отчета автору для исправления" style="html=1;dashed=0;whiteSpace=wrap;" vertex="1" parent="1">
          <mxGeometry x="540" y="312.5" width="140" height="55" as="geometry" />
        </mxCell>
        <mxCell id="gO5JieloGNC4S19XsaBI-11" style="edgeStyle=orthogonalEdgeStyle;rounded=0;orthogonalLoop=1;jettySize=auto;html=1;exitX=0.5;exitY=0;exitDx=0;exitDy=0;entryX=1;entryY=0.5;entryDx=0;entryDy=0;entryPerimeter=0;" edge="1" parent="1" source="gO5JieloGNC4S19XsaBI-8" target="gO5JieloGNC4S19XsaBI-1">
          <mxGeometry relative="1" as="geometry" />
        </mxCell>
        <mxCell id="gO5JieloGNC4S19XsaBI-16" style="edgeStyle=orthogonalEdgeStyle;rounded=0;orthogonalLoop=1;jettySize=auto;html=1;exitX=0.5;exitY=1;exitDx=0;exitDy=0;entryX=0.5;entryY=0;entryDx=0;entryDy=0;" edge="1" parent="1" source="gO5JieloGNC4S19XsaBI-12" target="gO5JieloGNC4S19XsaBI-15">
          <mxGeometry relative="1" as="geometry" />
        </mxCell>
        <mxCell id="gO5JieloGNC4S19XsaBI-12" value="Отправка документа в электронном виде согласующим лицам со стороны заказчика" style="html=1;dashed=0;whiteSpace=wrap;" vertex="1" parent="1">
          <mxGeometry x="210" y="380" width="150" height="80" as="geometry" />
        </mxCell>
        <mxCell id="gO5JieloGNC4S19XsaBI-19" style="edgeStyle=orthogonalEdgeStyle;rounded=0;orthogonalLoop=1;jettySize=auto;html=1;exitX=0.5;exitY=1;exitDx=0;exitDy=0;entryX=0.5;entryY=0;entryDx=0;entryDy=0;" edge="1" parent="1" source="gO5JieloGNC4S19XsaBI-15" target="gO5JieloGNC4S19XsaBI-18">
          <mxGeometry relative="1" as="geometry" />
        </mxCell>
        <mxCell id="gO5JieloGNC4S19XsaBI-15" value="Отправка копии электронного письма автору отчета" style="html=1;dashed=0;whiteSpace=wrap;" vertex="1" parent="1">
          <mxGeometry x="210" y="480" width="150" height="80" as="geometry" />
        </mxCell>
        <mxCell id="gO5JieloGNC4S19XsaBI-23" style="edgeStyle=orthogonalEdgeStyle;rounded=0;orthogonalLoop=1;jettySize=auto;html=1;exitX=0;exitY=0.5;exitDx=0;exitDy=0;entryX=0.5;entryY=0;entryDx=0;entryDy=0;" edge="1" parent="1" source="gO5JieloGNC4S19XsaBI-18" target="gO5JieloGNC4S19XsaBI-22">
          <mxGeometry relative="1" as="geometry" />
        </mxCell>
        <mxCell id="gO5JieloGNC4S19XsaBI-25" style="edgeStyle=orthogonalEdgeStyle;rounded=0;orthogonalLoop=1;jettySize=auto;html=1;exitX=1;exitY=0.5;exitDx=0;exitDy=0;entryX=0.5;entryY=0;entryDx=0;entryDy=0;" edge="1" parent="1" source="gO5JieloGNC4S19XsaBI-18" target="gO5JieloGNC4S19XsaBI-24">
          <mxGeometry relative="1" as="geometry" />
        </mxCell>
        <mxCell id="gO5JieloGNC4S19XsaBI-18" value="Указан ли срок рассмотрения отчета?" style="shape=rhombus;html=1;dashed=0;whiteSpace=wrap;perimeter=rhombusPerimeter;" vertex="1" parent="1">
          <mxGeometry x="355" y="600" width="165" height="95" as="geometry" />
        </mxCell>
        <mxCell id="gO5JieloGNC4S19XsaBI-20" value="да" style="edgeLabel;html=1;align=center;verticalAlign=middle;resizable=0;points=[];" vertex="1" connectable="0" parent="1">
          <mxGeometry x="320" y="640" as="geometry">
            <mxPoint x="-2" as="offset" />
          </mxGeometry>
        </mxCell>
        <mxCell id="gO5JieloGNC4S19XsaBI-21" value="нет" style="edgeLabel;html=1;align=center;verticalAlign=middle;resizable=0;points=[];" vertex="1" connectable="0" parent="1">
          <mxGeometry x="540" y="640" as="geometry" />
        </mxCell>
        <mxCell id="gO5JieloGNC4S19XsaBI-27" style="edgeStyle=orthogonalEdgeStyle;rounded=0;orthogonalLoop=1;jettySize=auto;html=1;exitX=0.5;exitY=1;exitDx=0;exitDy=0;" edge="1" parent="1" source="gO5JieloGNC4S19XsaBI-22" target="gO5JieloGNC4S19XsaBI-26">
          <mxGeometry relative="1" as="geometry" />
        </mxCell>
        <mxCell id="gO5JieloGNC4S19XsaBI-22" value="Отчет рассматривается согласующими лицами со стороны заказчика должны в срок, не превышающий количества дней, указанных в договоре" style="html=1;dashed=0;whiteSpace=wrap;" vertex="1" parent="1">
          <mxGeometry x="190" y="695" width="180" height="105" as="geometry" />
        </mxCell>
        <mxCell id="gO5JieloGNC4S19XsaBI-28" style="edgeStyle=orthogonalEdgeStyle;rounded=0;orthogonalLoop=1;jettySize=auto;html=1;exitX=0.5;exitY=1;exitDx=0;exitDy=0;entryX=0.5;entryY=0;entryDx=0;entryDy=0;" edge="1" parent="1" source="gO5JieloGNC4S19XsaBI-24" target="gO5JieloGNC4S19XsaBI-26">
          <mxGeometry relative="1" as="geometry" />
        </mxCell>
        <mxCell id="gO5JieloGNC4S19XsaBI-24" value="Отчет рассматривается согласующими лицами со стороны заказчика должны в срок, не превышающий семи рабочих дней" style="html=1;dashed=0;whiteSpace=wrap;" vertex="1" parent="1">
          <mxGeometry x="505" y="695" width="180" height="105" as="geometry" />
        </mxCell>
        <mxCell id="gO5JieloGNC4S19XsaBI-32" style="edgeStyle=orthogonalEdgeStyle;rounded=0;orthogonalLoop=1;jettySize=auto;html=1;exitX=0.5;exitY=1;exitDx=0;exitDy=0;entryX=0.5;entryY=0;entryDx=0;entryDy=0;" edge="1" parent="1" source="gO5JieloGNC4S19XsaBI-26" target="gO5JieloGNC4S19XsaBI-30">
          <mxGeometry relative="1" as="geometry" />
        </mxCell>
        <mxCell id="gO5JieloGNC4S19XsaBI-26" value="Отчет с замечаниями или визами согласования возвращается от заказчика руководителю проекта в электронном виде" style="html=1;dashed=0;whiteSpace=wrap;" vertex="1" parent="1">
          <mxGeometry x="347.5" y="860" width="180" height="90" as="geometry" />
        </mxCell>
        <mxCell id="gO5JieloGNC4S19XsaBI-34" style="edgeStyle=orthogonalEdgeStyle;rounded=0;orthogonalLoop=1;jettySize=auto;html=1;exitX=0;exitY=0.5;exitDx=0;exitDy=0;entryX=0.5;entryY=0;entryDx=0;entryDy=0;" edge="1" parent="1" source="gO5JieloGNC4S19XsaBI-30" target="gO5JieloGNC4S19XsaBI-33">
          <mxGeometry relative="1" as="geometry" />
        </mxCell>
        <mxCell id="gO5JieloGNC4S19XsaBI-38" style="edgeStyle=orthogonalEdgeStyle;rounded=0;orthogonalLoop=1;jettySize=auto;html=1;exitX=1;exitY=0.5;exitDx=0;exitDy=0;entryX=0.5;entryY=0;entryDx=0;entryDy=0;" edge="1" parent="1" source="gO5JieloGNC4S19XsaBI-30" target="gO5JieloGNC4S19XsaBI-37">
          <mxGeometry relative="1" as="geometry" />
        </mxCell>
        <mxCell id="gO5JieloGNC4S19XsaBI-30" value="Есть замечания?" style="shape=rhombus;html=1;dashed=0;whiteSpace=wrap;perimeter=rhombusPerimeter;" vertex="1" parent="1">
          <mxGeometry x="375" y="970" width="125" height="80" as="geometry" />
        </mxCell>
        <mxCell id="gO5JieloGNC4S19XsaBI-40" style="edgeStyle=orthogonalEdgeStyle;rounded=0;orthogonalLoop=1;jettySize=auto;html=1;exitX=0.5;exitY=1;exitDx=0;exitDy=0;entryX=0.5;entryY=0;entryDx=0;entryDy=0;" edge="1" parent="1" source="gO5JieloGNC4S19XsaBI-33" target="gO5JieloGNC4S19XsaBI-39">
          <mxGeometry relative="1" as="geometry" />
        </mxCell>
        <mxCell id="gO5JieloGNC4S19XsaBI-33" value="Передача отчета на доработку автору" style="html=1;dashed=0;whiteSpace=wrap;" vertex="1" parent="1">
          <mxGeometry x="200" y="1050" width="140" height="60" as="geometry" />
        </mxCell>
        <mxCell id="gO5JieloGNC4S19XsaBI-35" value="да" style="edgeLabel;html=1;align=center;verticalAlign=middle;resizable=0;points=[];" vertex="1" connectable="0" parent="1">
          <mxGeometry x="340" y="1000" as="geometry">
            <mxPoint x="3" y="-3" as="offset" />
          </mxGeometry>
        </mxCell>
        <mxCell id="gO5JieloGNC4S19XsaBI-36" value="нет" style="edgeLabel;html=1;align=center;verticalAlign=middle;resizable=0;points=[];" vertex="1" connectable="0" parent="1">
          <mxGeometry x="527.5" y="1000" as="geometry" />
        </mxCell>
        <mxCell id="gO5JieloGNC4S19XsaBI-37" value="Передача отчета на подпись директору компании" style="html=1;dashed=0;whiteSpace=wrap;" vertex="1" parent="1">
          <mxGeometry x="530" y="1050" width="140" height="60" as="geometry" />
        </mxCell>
        <mxCell id="gO5JieloGNC4S19XsaBI-43" style="edgeStyle=orthogonalEdgeStyle;rounded=0;orthogonalLoop=1;jettySize=auto;html=1;exitX=0.5;exitY=1;exitDx=0;exitDy=0;entryX=0.5;entryY=0;entryDx=0;entryDy=0;" edge="1" parent="1" source="gO5JieloGNC4S19XsaBI-39" target="gO5JieloGNC4S19XsaBI-42">
          <mxGeometry relative="1" as="geometry" />
        </mxCell>
        <mxCell id="gO5JieloGNC4S19XsaBI-39" value="Устранение всех замечаний, полученных от согласующих лиц со стороны заказчика в течение пяти рабочих дней" style="html=1;dashed=0;whiteSpace=wrap;" vertex="1" parent="1">
          <mxGeometry x="180" y="1130" width="180" height="80" as="geometry" />
        </mxCell>
        <mxCell id="gO5JieloGNC4S19XsaBI-44" style="edgeStyle=orthogonalEdgeStyle;rounded=0;orthogonalLoop=1;jettySize=auto;html=1;exitX=0.5;exitY=1;exitDx=0;exitDy=0;entryX=0;entryY=0.5;entryDx=0;entryDy=0;entryPerimeter=0;" edge="1" parent="1" source="gO5JieloGNC4S19XsaBI-42" target="gO5JieloGNC4S19XsaBI-1">
          <mxGeometry relative="1" as="geometry">
            <mxPoint x="130" y="670" as="targetPoint" />
            <Array as="points">
              <mxPoint x="270" y="1320" />
              <mxPoint x="100" y="1320" />
              <mxPoint x="100" y="85" />
            </Array>
          </mxGeometry>
        </mxCell>
        <mxCell id="gO5JieloGNC4S19XsaBI-42" value="Подготовлена новая версия отчет, где в приложении приведен лист замечаний" style="html=1;dashed=0;whiteSpace=wrap;" vertex="1" parent="1">
          <mxGeometry x="180" y="1230" width="180" height="70" as="geometry" />
        </mxCell>
        <mxCell id="gO5JieloGNC4S19XsaBI-45" value="Конец" style="html=1;dashed=0;whiteSpace=wrap;shape=mxgraph.dfd.start" vertex="1" parent="1">
          <mxGeometry x="560" y="1250" width="80" height="30" as="geometry" />
        </mxCell>
        <mxCell id="gO5JieloGNC4S19XsaBI-46" style="edgeStyle=orthogonalEdgeStyle;rounded=0;orthogonalLoop=1;jettySize=auto;html=1;exitX=0.5;exitY=1;exitDx=0;exitDy=0;entryX=0.5;entryY=0.5;entryDx=0;entryDy=-15;entryPerimeter=0;" edge="1" parent="1" source="gO5JieloGNC4S19XsaBI-37" target="gO5JieloGNC4S19XsaBI-45">
          <mxGeometry relative="1" as="geometry" />
        </mxCell>
      </root>
    </mxGraphModel>
  </diagram>
</mxfile>
